Coordinates
nRows=111
nColumns=2
inDegrees=yes
endheader
time	ankle_angle_r	
3.07762	 -0.514940	
3.14919	 -0.529991	
3.22077	 -0.477297	
3.29234	 -0.401211	
3.36391	 -0.488281	
3.43548	 -0.457764	
3.50706	 -0.483236	
3.57863	 -0.431875	
3.6502	 -0.478545	
3.72177	 -0.534058	
3.79335	 -0.484900	
3.86492	 -0.494428	
3.93649	 -0.490830	
4.00806	 -0.547183	
4.07964	 -0.464535	
4.15121	 -0.450785	
4.22278	 -0.502655	
4.29435	 -0.541921	
4.36593	 -0.541713	
4.4375	 -0.496092	
4.50907	 -0.510780	
4.58065	 -0.480054	
4.65222	 -0.427246	
4.72379	 -0.442505	
4.79536	 -0.442505	
4.86694	 -0.448705	
4.93851	 -0.381470	
5.01008	 -0.390945	
5.08165	 -0.468915	
5.15323	 -0.411987	
5.2248	 -0.427246	
5.29637	 -0.411987	
5.36794	 -0.489310	
5.43952	 -0.447040	
5.51109	 -0.422919	
5.58266	 -0.438385	
5.65423	 -0.419810	
5.72581	 -0.480875	
5.79738	 -0.393233	
5.86895	 -0.376073	
5.94052	 -0.433405	
6.0121	 -0.427246	
6.08367	 -0.470359	
6.15524	 -0.409532	
6.22681	 -0.544822	
6.29839	 -0.545238	
6.36996	 -0.429077	
6.44153	 -0.459387	
6.5131	 -0.486866	
6.58468	 -0.504747	
6.65625	 -0.411987	
6.72782	 -0.398311	
6.7994	 -0.502957	
6.87097	 -0.503540	
6.94254	 -0.472855	
7.01411	 -0.442505	
7.08569	 -0.534058	
7.15726	 -0.550231	
7.22883	 -0.486951	
7.3004	 -0.457764	
7.37198	 -0.501378	
7.44355	 -0.503540	
7.51512	 -0.454769	
7.58669	 -0.425541	
7.65827	 -0.490194	
7.72984	 -0.427246	
7.80141	 -0.414317	
7.87298	 -0.411987	
7.94456	 -0.457764	
8.01613	 -0.463670	
8.0877	 -0.427246	
8.15927	 -0.442505	
8.23085	 -0.408410	
8.30242	 -0.495969	
8.37399	 -0.446498	
8.44556	 -0.453562	
8.51714	 -0.488281	
8.58871	 -0.492899	
8.66028	 -0.477848	
8.73185	 -0.472864	
8.80343	 -0.508782	
8.875	 -0.564575	
8.94657	 -0.465135	
9.01815	 -0.446032	
9.08972	 -0.451690	
9.16129	 -0.466741	
9.23286	 -0.385680	
9.30444	 -0.394865	
9.37601	 -0.466117	
9.44758	 -0.450650	
9.51915	 -0.441890	
9.59073	 -0.412187	
9.6623	 -0.465285	
9.73387	 -0.496860	
9.80544	 -0.442505	
9.87702	 -0.488281	
9.94859	 -0.457764	
10.0202	 -0.527577	
10.0917	 -0.427246	
10.1633	 -0.457764	
10.2349	 -0.484736	
10.3065	 -0.493930	
10.378	 -0.508981	
10.4496	 -0.462996	
10.5212	 -0.513774	
10.5927	 -0.523616	
10.6643	 -0.477631	
10.7359	 -0.497083	
10.8075	 -0.518799	
10.879	 -0.564575	
10.9506	 -0.515022	
